<?xml version="1.0" encoding="UTF-8"?>
<svg version="1.1" xmlns="http://www.w3.org/2000/svg" width="500" height="500">
<path d="M0 0 C165 0 330 0 500 0 C500 165 500 330 500 500 C335 500 170 500 0 500 C0 335 0 170 0 0 Z " fill="#FEFEFE" transform="translate(0,0)"/>
<path d="M0 0 C2.31 0 4.62 0 7 0 C7 1.98 7 3.96 7 6 C9.31 6 11.62 6 14 6 C14 7.98 14 9.96 14 12 C16.97 12 19.94 12 23 12 C23 14.64 23 17.28 23 20 C37.52 20 52.04 20 67 20 C67 15.38 67 10.76 67 6 C73.93 6 80.86 6 88 6 C88 8.31 88 10.62 88 13 C92.95 13 97.9 13 103 13 C103 15.31 103 17.62 103 20 C106.96 20 110.92 20 115 20 C115 21.65 115 23.3 115 25 C117.64 25 120.28 25 123 25 C123 27.64 123 30.28 123 33 C125.97 33 128.94 33 132 33 C132 38.28 132 43.56 132 49 C133.98 49 135.96 49 138 49 C138 53.95 138 58.9 138 64 C140.31 64 142.62 64 145 64 C145 70.93 145 77.86 145 85 C147.31 85 149.62 85 152 85 C152 92.92 152 100.84 152 109 C154.31 109 156.62 109 159 109 C159 116.59 159 124.18 159 132 C156.69 132 154.38 132 152 132 C152 133.98 152 135.96 152 138 C149.69 138 147.38 138 145 138 C145 140.31 145 142.62 145 145 C143.02 145 141.04 145 139 145 C139 152.59 139 160.18 139 168 C85.87 168 32.74 168 -22 168 C-22 165.03 -22 162.06 -22 159 C-33.22 159 -44.44 159 -56 159 C-56 157.02 -56 155.04 -56 153 C-57.17755859 153.01740234 -57.17755859 153.01740234 -58.37890625 153.03515625 C-64.03719775 153.08375507 -69.42878878 153.01294749 -75 152 C-75 149.69 -75 147.38 -75 145 C-77.31 145 -79.62 145 -82 145 C-82 135.43 -82 125.86 -82 116 C-79.69 116 -77.38 116 -75 116 C-75 105.77 -75 95.54 -75 85 C-72.69 85 -70.38 85 -68 85 C-68 75.43 -68 65.86 -68 56 C-66.02 56 -64.04 56 -62 56 C-62 51.05 -62 46.1 -62 41 C-59.03 41 -56.06 41 -53 41 C-53 38.36 -53 35.72 -53 33 C-50.69 33 -48.38 33 -46 33 C-46 30.36 -46 27.72 -46 25 C-43.36 25 -40.72 25 -38 25 C-38 23.35 -38 21.7 -38 20 C-32.72 20 -27.44 20 -22 20 C-22 17.69 -22 15.38 -22 13 C-19.36 13 -16.72 13 -14 13 C-14 10.69 -14 8.38 -14 6 C-9.38 6 -4.76 6 0 6 C0 4.02 0 2.04 0 0 Z " fill="#13100E" transform="translate(208,332)"/>
<path d="M0 0 C13.53 0 27.06 0 41 0 C41 2.64 41 5.28 41 8 C43.31 8 45.62 8 48 8 C48 10.31 48 12.62 48 15 C50.64 15 53.28 15 56 15 C56 17.64 56 20.28 56 23 C66.23 23 76.46 23 87 23 C87 25.31 87 27.62 87 30 C89.97 30 92.94 30 96 30 C96 32.97 96 35.94 96 39 C98.64 39 101.28 39 104 39 C104 43.62 104 48.24 104 53 C108.29 53 112.58 53 117 53 C117 55.31 117 57.62 117 60 C119.64 60 122.28 60 125 60 C125 62.64 125 65.28 125 68 C127.64 68 130.28 68 133 68 C133 78.56 133 89.12 133 100 C130.36 100 127.72 100 125 100 C125 104.95 125 109.9 125 115 C122.36 115 119.72 115 117 115 C117 117.31 117 119.62 117 122 C111.72 122 106.44 122 101 122 C101 124.31 101 126.62 101 129 C98.69 129 96.38 129 94 129 C94 133.62 94 138.24 94 143 C95.65 143 97.3 143 99 143 C99 145.64 99 148.28 99 151 C97.35 151 95.7 151 94 151 C94 158.59 94 166.18 94 174 C91.69 174 89.38 174 87 174 C87 164.1 87 154.2 87 144 C64.23 143.505 64.23 143.505 41 143 C41 141.02 41 139.04 41 137 C56.18 137 71.36 137 87 137 C87 129.74 87 122.48 87 115 C82.38 115 77.76 115 73 115 C73 112.36 73 109.72 73 107 C71.02 107 69.04 107 67 107 C67 104.69 67 102.38 67 100 C64.03 100 61.06 100 58 100 C58 102.31 58 104.62 58 107 C55.36 107 52.72 107 50 107 C50 109.64 50 112.28 50 115 C43.07 115 36.14 115 29 115 C29 110.05 29 105.1 29 100 C26.36 100 23.72 100 21 100 C21 102.31 21 104.62 21 107 C18.69 107 16.38 107 14 107 C14 109.64 14 112.28 14 115 C1.79 115 -10.42 115 -23 115 C-23 112.36 -23 109.72 -23 107 C-25.31 107 -27.62 107 -30 107 C-30 104.69 -30 102.38 -30 100 C-32.97 100 -35.94 100 -39 100 C-39 102.31 -39 104.62 -39 107 C-43.95 107 -48.9 107 -54 107 C-54 109.64 -54 112.28 -54 115 C-58.29 115 -62.58 115 -67 115 C-67 119.62 -67 124.24 -67 129 C-68.65 129 -70.3 129 -72 129 C-72 133.95 -72 138.9 -72 144 C-63.75 144 -55.5 144 -47 144 C-47 141.36 -47 138.72 -47 136 C-28.85 136 -10.7 136 8 136 C8 138.64 8 141.28 8 144 C-7.51 144 -23.02 144 -39 144 C-39 146.31 -39 148.62 -39 151 C-26.13 151 -13.26 151 0 151 C0 153.64 0 156.28 0 159 C-5.28 159 -10.56 159 -16 159 C-16 163.95 -16 168.9 -16 174 C-20.95 174 -25.9 174 -31 174 C-31 169.05 -31 164.1 -31 159 C-33.97 159 -36.94 159 -40 159 C-40 156.69 -40 154.38 -40 152 C-41.98 152 -43.96 152 -46 152 C-46 159.26 -46 166.52 -46 174 C-43.69 174 -41.38 174 -39 174 C-39 176.31 -39 178.62 -39 181 C-26.46 181 -13.92 181 -1 181 C-1 178.69 -1 176.38 -1 174 C1.97 174 4.94 174 8 174 C8 176.64 8 179.28 8 182 C5.36 182 2.72 182 0 182 C0 183.98 0 185.96 0 188 C-13.2 188 -26.4 188 -40 188 C-40 186.02 -40 184.04 -40 182 C-44.62 182 -49.24 182 -54 182 C-54.33 174.41 -54.66 166.82 -55 159 C-62.92 159 -70.84 159 -79 159 C-79 156.69 -79 154.38 -79 152 C-81.64 152 -84.28 152 -87 152 C-87 149.36 -87 146.72 -87 144 C-91.29 144 -95.58 144 -100 144 C-100 146.31 -100 148.62 -100 151 C-102.31 151 -104.62 151 -107 151 C-107 150.34 -107 149.68 -107 149 C-109.31 149 -111.62 149 -114 149 C-114 145.37 -114 141.74 -114 138 C-116.64 138 -119.28 138 -122 138 C-122 135.36 -122 132.72 -122 130 C-124.31 130 -126.62 130 -129 130 C-129 127.03 -129 124.06 -129 121 C-131.31 121 -133.62 121 -136 121 C-136 114.07 -136 107.14 -136 100 C-138.64 100 -141.28 100 -144 100 C-144 92.08 -144 84.16 -144 76 C-141.69 76 -139.38 76 -137 76 C-137 73.36 -137 70.72 -137 68 C-134.36 68 -131.72 68 -129 68 C-129 62.72 -129 57.44 -129 52 C-126.69 52 -124.38 52 -122 52 C-122 49.69 -122 47.38 -122 45 C-119.69 45 -117.38 45 -115 45 C-115 42.69 -115 40.38 -115 38 C-112.36 38 -109.72 38 -107 38 C-107 35.36 -107 32.72 -107 30 C-104.69 30 -102.38 30 -100 30 C-100 27.69 -100 25.38 -100 23 C-97.36 23 -94.72 23 -92 23 C-92 20.36 -92 17.72 -92 15 C-80.45 15 -68.9 15 -57 15 C-57 12.69 -57 10.38 -57 8 C-47.76 8 -38.52 8 -29 8 C-29 10.31 -29 12.62 -29 15 C-21.74 15 -14.48 15 -7 15 C-7 12.36 -7 9.72 -7 7 C-4.69 7 -2.38 7 0 7 C0 4.69 0 2.38 0 0 Z " fill="#120A08" transform="translate(254,54)"/>
<path d="M0 0 C2.97 0 5.94 0 9 0 C9 2.31 9 4.62 9 7 C11.31 7 13.62 7 16 7 C16 9.64 16 12.28 16 15 C28.21 15 40.42 15 53 15 C53 12.36 53 9.72 53 7 C55.31 7 57.62 7 60 7 C60 4.69 60 2.38 60 0 C62.64 0 65.28 0 68 0 C68 4.95 68 9.9 68 15 C74.93 15 81.86 15 89 15 C89 12.36 89 9.72 89 7 C91.64 7 94.28 7 97 7 C97 4.69 97 2.38 97 0 C99.97 0 102.94 0 106 0 C106 2.31 106 4.62 106 7 C107.98 7 109.96 7 112 7 C112 9.64 112 12.28 112 15 C116.62 15 121.24 15 126 15 C126 22.26 126 29.52 126 37 C110.82 37 95.64 37 80 37 C80 38.98 80 40.96 80 43 C81.10923828 42.99476318 82.21847656 42.98952637 83.36132812 42.98413086 C87.50617658 42.96592828 91.65102154 42.95451257 95.79589844 42.94506836 C97.58431596 42.94006286 99.37272943 42.93325645 101.16113281 42.92456055 C103.74284874 42.91232834 106.32451021 42.90673372 108.90625 42.90234375 C110.09112 42.89460182 110.09112 42.89460182 111.29992676 42.88670349 C112.06011108 42.88662796 112.82029541 42.88655243 113.60351562 42.88647461 C114.26081665 42.884254 114.91811768 42.88203339 115.59533691 42.87974548 C119.07924899 43.05397204 122.53867103 43.56733388 126 44 C126 67.1 126 90.2 126 114 C124.02 114 122.04 114 120 114 C120 118.95 120 123.9 120 129 C117.69 129 115.38 129 113 129 C113 130.98 113 132.96 113 135 C110.36 135 107.72 135 105 135 C105 137.64 105 140.28 105 143 C102.69 143 100.38 143 98 143 C98 145.31 98 147.62 98 150 C95.36 150 92.72 150 90 150 C90 152.97 90 155.94 90 159 C87.69 159 85.38 159 83 159 C83 161.64 83 164.28 83 167 C75.41 167 67.82 167 60 167 C60 177.23 60 187.46 60 198 C45.48 198 30.96 198 16 198 C16 195.36 16 192.72 16 190 C13.03 190 10.06 190 7 190 C7 188.02 7 186.04 7 184 C4.69 184 2.38 184 0 184 C0 182.02 0 180.04 0 178 C-2.31 178 -4.62 178 -7 178 C-7 177.67 -7 177.34 -7 177 C-4.69 177 -2.38 177 0 177 C0 168.09 0 159.18 0 150 C-2.97 150 -5.94 150 -9 150 C-9 147.69 -9 145.38 -9 143 C-11.97 143 -14.94 143 -18 143 C-18 140.69 -18 138.38 -18 136 C-20.31 136 -22.62 136 -25 136 C-25 134.02 -25 132.04 -25 130 C-27.31 130 -29.62 130 -32 130 C-32 126.7 -32 123.4 -32 120 C-33.65 120 -35.3 120 -37 120 C-37 116.04 -37 112.08 -37 108 C-42.28 108 -47.56 108 -53 108 C-53 105.03 -53 102.06 -53 99 C-55.64 99 -58.28 99 -61 99 C-61 96.36 -61 93.72 -61 91 C-63.31 91 -65.62 91 -68 91 C-68 88.03 -68 85.06 -68 82 C-70.31 82 -72.62 82 -75 82 C-75 73.09 -75 64.18 -75 55 C-72.69 55 -70.38 55 -68 55 C-68 53.68 -68 52.36 -68 51 C-65.69 51 -63.38 51 -61 51 C-61 48.69 -61 46.38 -61 44 C-56.71 44 -52.42 44 -48 44 C-48 46.64 -48 49.28 -48 52 C-45.36 52 -42.72 52 -40 52 C-40 54.31 -40 56.62 -40 59 C-32.08 59 -24.16 59 -16 59 C-16 57.02 -16 55.04 -16 53 C-15.67 53 -15.34 53 -15 53 C-15 62.57 -15 72.14 -15 82 C-10.38 82 -5.76 82 -1 82 C-1 83.98 -1 85.96 -1 88 C12.2 88 25.4 88 39 88 C39 86.02 39 84.04 39 82 C41.64 82 44.28 82 47 82 C47 79.36 47 76.72 47 74 C44.03 74 41.06 74 38 74 C38 76.31 38 78.62 38 81 C25.46 81 12.92 81 0 81 C0 78.69 0 76.38 0 74 C-2.31 74 -4.62 74 -7 74 C-7 66.74 -7 59.48 -7 52 C-5.02 52 -3.04 52 -1 52 C-1 54.31 -1 56.62 -1 59 C1.97 59 4.94 59 8 59 C8 63.95 8 68.9 8 74 C12.95 74 17.9 74 23 74 C23 69.05 23 64.1 23 59 C28.28 59 33.56 59 39 59 C39 56.36 39 53.72 39 51 C26.13 51 13.26 51 0 51 C0 48.69 0 46.38 0 44 C15.51 44 31.02 44 47 44 C47 41.36 47 38.72 47 36 C28.85 36 10.7 36 -8 36 C-8 38.64 -8 41.28 -8 44 C-16.25 44 -24.5 44 -33 44 C-33 39.05 -33 34.1 -33 29 C-31.35 29 -29.7 29 -28 29 C-28 24.38 -28 19.76 -28 15 C-23.71 15 -19.42 15 -15 15 C-15 12.36 -15 9.72 -15 7 C-10.05 7 -5.1 7 0 7 C0 4.69 0 2.38 0 0 Z " fill="#EDB171" transform="translate(215,154)"/>
<path d="M0 0 C2.97 0 5.94 0 9 0 C9 2.31 9 4.62 9 7 C11.31 7 13.62 7 16 7 C16 9.64 16 12.28 16 15 C28.21 15 40.42 15 53 15 C53 12.36 53 9.72 53 7 C55.31 7 57.62 7 60 7 C60 4.69 60 2.38 60 0 C62.64 0 65.28 0 68 0 C68 4.95 68 9.9 68 15 C74.93 15 81.86 15 89 15 C89 12.36 89 9.72 89 7 C91.64 7 94.28 7 97 7 C97 4.69 97 2.38 97 0 C99.97 0 102.94 0 106 0 C106 2.31 106 4.62 106 7 C107.98 7 109.96 7 112 7 C112 9.64 112 12.28 112 15 C116.62 15 121.24 15 126 15 C126 22.26 126 29.52 126 37 C110.82 37 95.64 37 80 37 C80 38.98 80 40.96 80 43 C81.10923828 42.99476318 82.21847656 42.98952637 83.36132812 42.98413086 C87.50617658 42.96592828 91.65102154 42.95451257 95.79589844 42.94506836 C97.58431596 42.94006286 99.37272943 42.93325645 101.16113281 42.92456055 C103.74284874 42.91232834 106.32451021 42.90673372 108.90625 42.90234375 C110.09112 42.89460182 110.09112 42.89460182 111.29992676 42.88670349 C112.06011108 42.88662796 112.82029541 42.88655243 113.60351562 42.88647461 C114.26081665 42.884254 114.91811768 42.88203339 115.59533691 42.87974548 C119.07924899 43.05397204 122.53867103 43.56733388 126 44 C126 66.77 126 89.54 126 113 C123.69 113 121.38 113 119 113 C119 105.08 119 97.16 119 89 C107.45 89 95.9 89 84 89 C84 86.69 84 84.38 84 82 C82.35 82 80.7 82 79 82 C79 79.36 79 76.72 79 74 C77.02 74 75.04 74 73 74 C73 68.72 73 63.44 73 58 C66.4 58 59.8 58 53 58 C53 63.28 53 68.56 53 74 C48.05 74 43.1 74 38 74 C38 76.31 38 78.62 38 81 C25.46 81 12.92 81 0 81 C0 78.69 0 76.38 0 74 C-2.31 74 -4.62 74 -7 74 C-7 66.74 -7 59.48 -7 52 C-5.02 52 -3.04 52 -1 52 C-1 54.31 -1 56.62 -1 59 C1.97 59 4.94 59 8 59 C8 63.95 8 68.9 8 74 C12.95 74 17.9 74 23 74 C23 69.05 23 64.1 23 59 C28.28 59 33.56 59 39 59 C39 56.36 39 53.72 39 51 C26.13 51 13.26 51 0 51 C0 48.69 0 46.38 0 44 C15.51 44 31.02 44 47 44 C47 41.36 47 38.72 47 36 C28.85 36 10.7 36 -8 36 C-8 38.64 -8 41.28 -8 44 C-16.25 44 -24.5 44 -33 44 C-33 39.05 -33 34.1 -33 29 C-31.35 29 -29.7 29 -28 29 C-28 24.38 -28 19.76 -28 15 C-23.71 15 -19.42 15 -15 15 C-15 12.36 -15 9.72 -15 7 C-10.05 7 -5.1 7 0 7 C0 4.69 0 2.38 0 0 Z " fill="#90653E" transform="translate(215,154)"/>
<path d="M0 0 C2.97 0 5.94 0 9 0 C9 2.31 9 4.62 9 7 C11.31 7 13.62 7 16 7 C16 9.64 16 12.28 16 15 C28.21 15 40.42 15 53 15 C53 12.36 53 9.72 53 7 C55.31 7 57.62 7 60 7 C60 4.69 60 2.38 60 0 C62.64 0 65.28 0 68 0 C68 4.95 68 9.9 68 15 C74.93 15 81.86 15 89 15 C89 12.36 89 9.72 89 7 C91.64 7 94.28 7 97 7 C97 4.69 97 2.38 97 0 C99.97 0 102.94 0 106 0 C106 2.31 106 4.62 106 7 C107.98 7 109.96 7 112 7 C112 9.64 112 12.28 112 15 C113.98 15 115.96 15 118 15 C118 16.98 118 18.96 118 21 C106.78 21 95.56 21 84 21 C84 23.64 84 26.28 84 29 C95.22 29 106.44 29 118 29 C118 31.31 118 33.62 118 36 C105.13 36 92.26 36 79 36 C79 38.64 79 41.28 79 44 C76.69 44 74.38 44 72 44 C72 46.31 72 48.62 72 51 C66.06 51 60.12 51 54 51 C54 48.69 54 46.38 54 44 C51.69 44 49.38 44 47 44 C47 41.36 47 38.72 47 36 C28.85 36 10.7 36 -8 36 C-8 38.64 -8 41.28 -8 44 C-16.25 44 -24.5 44 -33 44 C-33 39.05 -33 34.1 -33 29 C-31.35 29 -29.7 29 -28 29 C-28 24.38 -28 19.76 -28 15 C-23.71 15 -19.42 15 -15 15 C-15 12.36 -15 9.72 -15 7 C-10.05 7 -5.1 7 0 7 C0 4.69 0 2.38 0 0 Z " fill="#EAB272" transform="translate(215,154)"/>
<path d="M0 0 C18.15 0 36.3 0 55 0 C55 2.64 55 5.28 55 8 C39.49 8 23.98 8 8 8 C8 10.31 8 12.62 8 15 C20.87 15 33.74 15 47 15 C47 17.64 47 20.28 47 23 C41.72 23 36.44 23 31 23 C31 27.95 31 32.9 31 38 C26.05 38 21.1 38 16 38 C16 33.05 16 28.1 16 23 C13.03 23 10.06 23 7 23 C7 20.69 7 18.38 7 16 C5.02 16 3.04 16 1 16 C1 23.26 1 30.52 1 38 C3.31 38 5.62 38 8 38 C8 40.31 8 42.62 8 45 C20.54 45 33.08 45 46 45 C46 42.69 46 40.38 46 38 C48.97 38 51.94 38 55 38 C55 40.64 55 43.28 55 46 C52.36 46 49.72 46 47 46 C47 47.98 47 49.96 47 52 C33.8 52 20.6 52 7 52 C7 50.02 7 48.04 7 46 C2.38 46 -2.24 46 -7 46 C-7.495 34.615 -7.495 34.615 -8 23 C-13.61 23 -19.22 23 -25 23 C-25 20.69 -25 18.38 -25 16 C-18.73 16 -12.46 16 -6 16 C-6 23.26 -6 30.52 -6 38 C-4.02 38 -2.04 38 0 38 C0 25.46 0 12.92 0 0 Z " fill="#A18052" transform="translate(207,190)"/>
<path d="M0 0 C2.97 0 5.94 0 9 0 C9 2.64 9 5.28 9 8 C16.26 8 23.52 8 31 8 C31 10.31 31 12.62 31 15 C35.95 15 40.9 15 46 15 C46 20.28 46 25.56 46 31 C47.98 31 49.96 31 52 31 C52 33.31 52 35.62 52 38 C37.81 38 23.62 38 9 38 C9 35.69 9 33.38 9 31 C6.03 31 3.06 31 0 31 C0 20.77 0 10.54 0 0 Z " fill="#EEB373" transform="translate(222,313)"/>
<path d="M0 0 C4.95 0 9.9 0 15 0 C15 2.31 15 4.62 15 7 C20.28 7 25.56 7 31 7 C31 9.97 31 12.94 31 16 C50.47 16 69.94 16 90 16 C90 18.31 90 20.62 90 23 C82.74 23 75.48 23 68 23 C68 33.56 68 44.12 68 55 C53.48 55 38.96 55 24 55 C24 54.67 24 54.34 24 54 C38.19 54 52.38 54 67 54 C67 51.69 67 49.38 67 47 C65.02 47 63.04 47 61 47 C61 41.72 61 36.44 61 31 C56.05 31 51.1 31 46 31 C46 28.69 46 26.38 46 24 C38.74 24 31.48 24 24 24 C24 21.36 24 18.72 24 16 C21.03 16 18.06 16 15 16 C15 24.25 15 32.5 15 41 C12.69 41 10.38 41 8 41 C8 39.02 8 37.04 8 35 C5.69 35 3.38 35 1 35 C1 34.67 1 34.34 1 34 C3.31 34 5.62 34 8 34 C8 25.09 8 16.18 8 7 C5.36 7 2.72 7 0 7 C0 4.69 0 2.38 0 0 Z " fill="#A8673C" transform="translate(207,297)"/>
<path d="M0 0 C15.51 0 31.02 0 47 0 C47 9.9 47 19.8 47 30 C44.03 30 41.06 30 38 30 C38 32.31 38 34.62 38 37 C25.46 37 12.92 37 0 37 C0 34.69 0 32.38 0 30 C-2.31 30 -4.62 30 -7 30 C-7 22.74 -7 15.48 -7 8 C-5.02 8 -3.04 8 -1 8 C-1 10.31 -1 12.62 -1 15 C1.97 15 4.94 15 8 15 C8 19.95 8 24.9 8 30 C12.95 30 17.9 30 23 30 C23 25.05 23 20.1 23 15 C28.28 15 33.56 15 39 15 C39 12.36 39 9.72 39 7 C26.13 7 13.26 7 0 7 C0 4.69 0 2.38 0 0 Z " fill="#DDAD71" transform="translate(215,198)"/>
<path d="M0 0 C2.31 0 4.62 0 7 0 C7 2.31 7 4.62 7 7 C12.94 7 18.88 7 25 7 C25 4.69 25 2.38 25 0 C27.31 0 29.62 0 32 0 C32 2.64 32 5.28 32 8 C44.87 8 57.74 8 71 8 C71 10.31 71 12.62 71 15 C64.73 15 58.46 15 52 15 C52 19.95 52 24.9 52 30 C47.05 30 42.1 30 37 30 C37 24.72 37 19.44 37 14 C35.35 14 33.7 14 32 14 C32 19.28 32 24.56 32 30 C30.02 30 28.04 30 26 30 C26 24.72 26 19.44 26 14 C19.4 14 12.8 14 6 14 C6 19.28 6 24.56 6 30 C4.02 30 2.04 30 0 30 C0 20.1 0 10.2 0 0 Z " fill="#140A05" transform="translate(262,198)"/>
<path d="M0 0 C2.31 0 4.62 0 7 0 C7 2.31 7 4.62 7 7 C12.28 7 17.56 7 23 7 C23 5.02 23 3.04 23 1 C24.98 1 26.96 1 29 1 C29 6.28 29 11.56 29 17 C30.98 17 32.96 17 35 17 C35 21.29 35 25.58 35 30 C37.64 30 40.28 30 43 30 C43.495 36.93 43.495 36.93 44 44 C46.97 44 49.94 44 53 44 C53.04254356 45.99954746 53.04080783 48.00041636 53 50 C52 51 52 51 49.93359375 51.09765625 C49.10988281 51.08605469 48.28617188 51.07445312 47.4375 51.0625 C46.61121094 51.05347656 45.78492188 51.04445313 44.93359375 51.03515625 C44.29550781 51.02355469 43.65742188 51.01195312 43 51 C43 48.69 43 46.38 43 44 C40.36 44 37.72 44 35 44 C35 42.35 35 40.7 35 39 C32.69 39 30.38 39 28 39 C28 35.7 28 32.4 28 29 C26.35 29 24.7 29 23 29 C23 25.04 23 21.08 23 17 C17.72 17 12.44 17 7 17 C7 14.03 7 11.06 7 8 C4.69 8 2.38 8 0 8 C0 5.36 0 2.72 0 0 Z " fill="#A8673C" transform="translate(155,245)"/>
<path d="M0 0 C1.98 0 3.96 0 6 0 C6 7.26 6 14.52 6 22 C3.69 22 1.38 22 -1 22 C-1 24.31 -1 26.62 -1 29 C-12.22 29 -23.44 29 -35 29 C-35 26.69 -35 24.38 -35 22 C-30.05 22 -25.1 22 -20 22 C-20 17.05 -20 12.1 -20 7 C-13.4 7 -6.8 7 0 7 C0 4.69 0 2.38 0 0 Z " fill="#E1A669" transform="translate(334,206)"/>
<path d="M0 0 C7.92 0 15.84 0 24 0 C24 7.59 24 15.18 24 23 C16.08 23 8.16 23 0 23 C0 15.41 0 7.82 0 0 Z " fill="#EFB372" transform="translate(323,477)"/>
<path d="M0 0 C1.98 0 3.96 0 6 0 C6 2.31 6 4.62 6 7 C8.97 7 11.94 7 15 7 C15 11.95 15 16.9 15 22 C19.95 22 24.9 22 30 22 C30 17.05 30 12.1 30 7 C30.33 7 30.66 7 31 7 C31 11.95 31 16.9 31 22 C35.62 22 40.24 22 45 22 C45 24.31 45 26.62 45 29 C32.46 29 19.92 29 7 29 C7 26.69 7 24.38 7 22 C4.69 22 2.38 22 0 22 C0 14.74 0 7.48 0 0 Z " fill="#DEA66D" transform="translate(208,206)"/>
<path d="M0 0 C12.87 0 25.74 0 39 0 C39 2.31 39 4.62 39 7 C33.72 7 28.44 7 23 7 C23 11.95 23 16.9 23 22 C18.05 22 13.1 22 8 22 C8 17.05 8 12.1 8 7 C5.36 7 2.72 7 0 7 C0 4.69 0 2.38 0 0 Z " fill="#150B06" transform="translate(215,206)"/>
<path d="M0 0 C3.96 0 7.92 0 12 0 C12 1.98 12 3.96 12 6 C23.22 6 34.44 6 46 6 C46 8.97 46 11.94 46 15 C30.82 15 15.64 15 0 15 C0 10.05 0 5.1 0 0 Z " fill="#DB9D63" transform="translate(140,485)"/>
<path d="M0 0 C4.29 0 8.58 0 13 0 C13 2.64 13 5.28 13 8 C8.71 8 4.42 8 0 8 C0 10.31 0 12.62 0 15 C-1.98 15 -3.96 15 -6 15 C-6 22.59 -6 30.18 -6 38 C-3.69 38 -1.38 38 1 38 C1 40.64 1 43.28 1 46 C-1.64 46 -4.28 46 -7 46 C-7 43.36 -7 40.72 -7 38 C-9.31 38 -11.62 38 -14 38 C-14 29.09 -14 20.18 -14 11 C-11.69 11 -9.38 11 -7 11 C-7 9.68 -7 8.36 -7 7 C-4.69 7 -2.38 7 0 7 C0 4.69 0 2.38 0 0 Z " fill="#9C5D34" transform="translate(154,198)"/>
<path d="M0 0 C2.31 0 4.62 0 7 0 C7 2.31 7 4.62 7 7 C19.54 7 32.08 7 45 7 C45 4.69 45 2.38 45 0 C47.97 0 50.94 0 54 0 C54 2.64 54 5.28 54 8 C51.36 8 48.72 8 46 8 C46 9.98 46 11.96 46 14 C32.8 14 19.6 14 6 14 C6 12.02 6 10.04 6 8 C4.02 8 2.04 8 0 8 C0 5.36 0 2.72 0 0 Z " fill="#110703" transform="translate(208,228)"/>
<path d="M0 0 C17.82 0 35.64 0 54 0 C54 2.31 54 4.62 54 7 C36.18 7 18.36 7 0 7 C0 4.69 0 2.38 0 0 Z " fill="#180F09" transform="translate(208,191)"/>
<path d="M0 0 C17.49 0 34.98 0 53 0 C53 2.31 53 4.62 53 7 C35.51 7 18.02 7 0 7 C0 4.69 0 2.38 0 0 Z " fill="#A15D33" transform="translate(248,275)"/>
<path d="M0 0 C15.18 0 30.36 0 46 0 C46 2.64 46 5.28 46 8 C30.82 8 15.64 8 0 8 C0 5.36 0 2.72 0 0 Z " fill="#171009" transform="translate(208,175)"/>
<path d="M0 0 C1.65 0 3.3 0 5 0 C5 2.64 5 5.28 5 8 C6.65 8 8.3 8 10 8 C10 10.31 10 12.62 10 15 C8.35 15 6.7 15 5 15 C5 20.94 5 26.88 5 33 C-1.27 33 -7.54 33 -14 33 C-14 30.03 -14 27.06 -14 24 C-10.04 24 -6.08 24 -2 24 C-2.02320313 22.60265625 -2.04640625 21.2053125 -2.0703125 19.765625 C-2.08907307 17.92708868 -2.10727297 16.08854658 -2.125 14.25 C-2.14175781 13.32960937 -2.15851563 12.40921875 -2.17578125 11.4609375 C-2.18222656 10.57148438 -2.18867188 9.68203125 -2.1953125 8.765625 C-2.20578613 7.94868164 -2.21625977 7.13173828 -2.22705078 6.29003906 C-1.97829916 3.78112482 -1.25700129 2.16604375 0 0 Z " fill="#D99C61" transform="translate(289,228)"/>
<path d="M0 0 C4.29 0 8.58 0 13 0 C13 1.98 13 3.96 13 6 C15.31 6 17.62 6 20 6 C20 13.92 20 21.84 20 30 C17.69 30 15.38 30 13 30 C13 24.39 13 18.78 13 13 C8.71 13 4.42 13 0 13 C0 8.71 0 4.42 0 0 Z " fill="#A15E34" transform="translate(155,213)"/>
<path d="M0 0 C1.98 0 3.96 0 6 0 C6 4.29 6 8.58 6 13 C8.64 13 11.28 13 14 13 C14.33 17.62 14.66 22.24 15 27 C17.97 27 20.94 27 24 27 C24.04254356 28.99954746 24.04080783 31.00041636 24 33 C23 34 23 34 20.93359375 34.09765625 C20.10988281 34.08605469 19.28617188 34.07445312 18.4375 34.0625 C17.61121094 34.05347656 16.78492188 34.04445313 15.93359375 34.03515625 C15.29550781 34.02355469 14.65742188 34.01195312 14 34 C14 31.69 14 29.38 14 27 C11.36 27 8.72 27 6 27 C6 25.35 6 23.7 6 22 C3.69 22 1.38 22 -1 22 C-1.12515181 14.61604326 -0.63661781 7.35520932 0 0 Z " fill="#AE7249" transform="translate(184,262)"/>
<path d="M0 0 C15.18 0 30.36 0 46 0 C46 0.33 46 0.66 46 1 C44.02 1 42.04 1 40 1 C40 5.29 40 9.58 40 14 C39.67 14 39.34 14 39 14 C39 11.69 39 9.38 39 7 C26.13 7 13.26 7 0 7 C0 4.69 0 2.38 0 0 Z " fill="#F0BC7A" transform="translate(215,198)"/>
<path d="M0 0 C2.97 0 5.94 0 9 0 C9 2.64 9 5.28 9 8 C16.26 8 23.52 8 31 8 C31 10.31 31 12.62 31 15 C20.77 15 10.54 15 0 15 C0 10.05 0 5.1 0 0 Z " fill="#D2925C" transform="translate(222,313)"/>
<path d="M0 0 C13.2 0 26.4 0 40 0 C40 2.31 40 4.62 40 7 C26.8 7 13.6 7 0 7 C0 4.69 0 2.38 0 0 Z " fill="#D79860" transform="translate(254,268)"/>
<path d="M0 0 C1.65 0 3.3 0 5 0 C5 2.64 5 5.28 5 8 C16.22 8 27.44 8 39 8 C39 10.31 39 12.62 39 15 C19.695 14.505 19.695 14.505 0 14 C0 9.38 0 4.76 0 0 Z " fill="#D79D64" transform="translate(294,175)"/>
<path d="M0 0 C1.98 0 3.96 0 6 0 C6 2.31 6 4.62 6 7 C8.97 7 11.94 7 15 7 C15 11.95 15 16.9 15 22 C10.05 22 5.1 22 0 22 C0 14.74 0 7.48 0 0 Z " fill="#E9B272" transform="translate(208,206)"/>
<path d="M0 0 C12.54 0 25.08 0 38 0 C38 2.31 38 4.62 38 7 C25.46 7 12.92 7 0 7 C0 4.69 0 2.38 0 0 Z " fill="#F0BB79" transform="translate(295,198)"/>
<path d="M0 0 C9.57 0 19.14 0 29 0 C29 2.64 29 5.28 29 8 C19.43 8 9.86 8 0 8 C0 5.36 0 2.72 0 0 Z " fill="#1A120A" transform="translate(299,175)"/>
<path d="M0 0 C2.31 0 4.62 0 7 0 C7 4.95 7 9.9 7 15 C4.03 14.67 1.06 14.34 -2 14 C-2 13.01 -2 12.02 -2 11 C-17.18 10.67 -32.36 10.34 -48 10 C-48 11.98 -48 13.96 -48 16 C-50.31 16 -52.62 16 -55 16 C-55 13.36 -55 10.72 -55 8 C-36.85 8.33 -18.7 8.66 0 9 C0 6.03 0 3.06 0 0 Z " fill="#D5955E" transform="translate(255,175)"/>
<path d="M0 0 C2.97 0 5.94 0 9 0 C9 7.59 9 15.18 9 23 C6.03 23 3.06 23 0 23 C0 15.41 0 7.82 0 0 Z " fill="#A9673A" transform="translate(338,477)"/>
<path d="M0 0 C11.22 0 22.44 0 34 0 C34 1.98 34 3.96 34 6 C22.78 6 11.56 6 0 6 C0 4.02 0 2.04 0 0 Z " fill="#120803" transform="translate(299,236)"/>
<path d="M0 0 C6.27 0 12.54 0 19 0 C19 0.33 19 0.66 19 1 C17.02 1 15.04 1 13 1 C13 5.62 13 10.24 13 15 C8.71 15 4.42 15 0 15 C0 10.05 0 5.1 0 0 Z " fill="#FCEED9" transform="translate(314,213)"/>
<path d="M0 0 C0.33 0 0.66 0 1 0 C1 1.65 1 3.3 1 5 C0.67 5 0.34 5 0 5 C0 3.35 0 1.7 0 0 Z M-7 5 C-4.69 5 -2.38 5 0 5 C0 14.24 0 23.48 0 33 C-1.98 33 -3.96 33 -6 33 C-7.35700647 30.28598706 -7.1123861 28.15153684 -7.09765625 25.1171875 C-7.09443359 23.95058594 -7.09121094 22.78398437 -7.08789062 21.58203125 C-7.07951172 20.35871094 -7.07113281 19.13539063 -7.0625 17.875 C-7.05798828 16.64394531 -7.05347656 15.41289062 -7.04882812 14.14453125 C-7.0370133 11.09630608 -7.02054028 8.04817686 -7 5 Z " fill="#080403" transform="translate(147,383)"/>
<path d="M0 0 C18.15 0 36.3 0 55 0 C55 0.33 55 0.66 55 1 C37.18 1 19.36 1 1 1 C1 3.31 1 5.62 1 8 C3.31 8 5.62 8 8 8 C8 10.31 8 12.62 8 15 C20.87 15 33.74 15 47 15 C47 15.33 47 15.66 47 16 C34.13 16 21.26 16 8 16 C8 18.31 8 20.62 8 23 C7.67 23 7.34 23 7 23 C7 20.69 7 18.38 7 16 C5.02 16 3.04 16 1 16 C1 23.26 1 30.52 1 38 C0.67 38 0.34 38 0 38 C0 25.46 0 12.92 0 0 Z " fill="#85633F" transform="translate(207,190)"/>
<path d="M0 0 C2.31 0 4.62 0 7 0 C7 8.91 7 17.82 7 27 C4.69 27 2.38 27 0 27 C0 18.09 0 9.18 0 0 Z " fill="#080403" transform="translate(126,449)"/>
<path d="M0 0 C4.95 0 9.9 0 15 0 C15 2.31 15 4.62 15 7 C13.35 7 11.7 7 10 7 C10 9.64 10 12.28 10 15 C6.7 15 3.4 15 0 15 C0 10.05 0 5.1 0 0 Z " fill="#FBEFDA" transform="translate(239,213)"/>
<path d="M0 0 C3.63 0 7.26 0 11 0 C11 0.33 11 0.66 11 1 C8.03 1 5.06 1 2 1 C1.67 10.57 1.34 20.14 1 30 C-1.31 30 -3.62 30 -6 30 C-6 22.41 -6 14.82 -6 7 C-4.02 7 -2.04 7 0 7 C0 4.69 0 2.38 0 0 Z " fill="#EFB574" transform="translate(154,206)"/>
<path d="M0 0 C1.98 0 3.96 0 6 0 C6.07408587 4.09333905 6.1285704 8.18641933 6.16479492 12.28027344 C6.17989358 13.67324622 6.20037444 15.06617138 6.22631836 16.45898438 C6.26265122 18.45942885 6.27811192 20.46021827 6.29296875 22.4609375 C6.31653442 24.26763916 6.31653442 24.26763916 6.34057617 26.11083984 C6.22818604 27.0642627 6.1157959 28.01768555 6 29 C5.01 29.66 4.02 30.32 3 31 C1 30 1 30 0.38110352 28.31738281 C-0.08465095 25.48526147 -0.11172937 22.79279114 -0.09765625 19.921875 C-0.09443359 18.76171875 -0.09121094 17.6015625 -0.08789062 16.40625 C-0.07951172 15.1996875 -0.07113281 13.993125 -0.0625 12.75 C-0.05798828 11.52796875 -0.05347656 10.3059375 -0.04882812 9.046875 C-0.03704815 6.03120054 -0.02059853 3.01562502 0 0 Z " fill="#0A0605" transform="translate(134,417)"/>
<path d="M0 0 C2.64 0 5.28 0 8 0 C8 4.95 8 9.9 8 15 C3.05 15 -1.9 15 -7 15 C-7 12.36 -7 9.72 -7 7 C-4.69 7 -2.38 7 0 7 C0 4.69 0 2.38 0 0 Z " fill="#DDA568" transform="translate(275,154)"/>
<path d="M0 0 C0.17194186 2.70808433 0.33756824 5.41634063 0.5 8.125 C0.54769531 8.86621094 0.59539062 9.60742188 0.64453125 10.37109375 C1.07080116 17.61768222 1 24.6947094 1 32 C-13.52 32 -28.04 32 -43 32 C-43 31.67 -43 31.34 -43 31 C-28.81 31 -14.62 31 0 31 C0 28.69 0 26.38 0 24 C-1.65 24 -3.3 24 -5 24 C-5 16.41 -5 8.82 -5 1 C-2 0 -2 0 0 0 Z " fill="#8F5934" transform="translate(274,320)"/>
<path d="M0 0 C5.94 0 11.88 0 18 0 C18 2.97 18 5.94 18 9 C15.69 9 13.38 9 11 9 C11 11.64 11 14.28 11 17 C3.41 17 -4.18 17 -12 17 C-12 16.67 -12 16.34 -12 16 C-4.74 16 2.52 16 10 16 C10 13.03 10 10.06 10 7 C6.7 7 3.4 7 0 7 C0 4.69 0 2.38 0 0 Z " fill="#D19C6F" transform="translate(287,304)"/>
<path d="M0 0 C2.31 0 4.62 0 7 0 C7 2.31 7 4.62 7 7 C19.54 7 32.08 7 45 7 C45 4.69 45 2.38 45 0 C47.97 0 50.94 0 54 0 C54 2.64 54 5.28 54 8 C38.49 8 22.98 8 7 8 C7 9.98 7 11.96 7 14 C6.67 14 6.34 14 6 14 C6 12.02 6 10.04 6 8 C4.02 8 2.04 8 0 8 C0 5.36 0 2.72 0 0 Z " fill="#8A6F49" transform="translate(208,228)"/>
<path d="M0 0 C4.29 0 8.58 0 13 0 C13 5.61 13 11.22 13 17 C11.02 17 9.04 17 7 17 C7 14.69 7 12.38 7 10 C4.69 10 2.38 10 0 10 C0 6.7 0 3.4 0 0 Z " fill="#CE8E59" transform="translate(155,226)"/>
<path d="M0 0 C6.27 0 12.54 0 19 0 C19 2.97 19 5.94 19 9 C12.73 9 6.46 9 0 9 C0 6.03 0 3.06 0 0 Z " fill="#D3935C" transform="translate(275,252)"/>
<path d="M0 0 C2.31 0 4.62 0 7 0 C7 7.59 7 15.18 7 23 C4.69 23 2.38 23 0 23 C0 15.41 0 7.82 0 0 Z " fill="#A56439" transform="translate(323,477)"/>
<path d="M0 0 C2.64 0 5.28 0 8 0 C8 2.31 8 4.62 8 7 C12.455 6.505 12.455 6.505 17 6 C17.33 4.02 17.66 2.04 18 0 C19.98 0 21.96 0 24 0 C24 2.31 24 4.62 24 7 C29.61 7 35.22 7 41 7 C41 9.64 41 12.28 41 15 C38.03 15 35.06 15 32 15 C32 12.69 32 10.38 32 8 C27.05 8 22.1 8 17 8 C17 10.31 17 12.62 17 15 C16.67 15 16.34 15 16 15 C16 12.69 16 10.38 16 8 C13.03 8 10.06 8 7 8 C7 5.69 7 3.38 7 1 C4.69 1 2.38 1 0 1 C0 0.67 0 0.34 0 0 Z " fill="#CB9872" transform="translate(190,289)"/>
<path d="M0 0 C6.6 0 13.2 0 20 0 C20 5.28 20 10.56 20 16 C19.67 16 19.34 16 19 16 C18.67 13.03 18.34 10.06 18 7 C12.39 7 6.78 7 1 7 C1 9.97 1 12.94 1 16 C0.67 16 0.34 16 0 16 C0 10.72 0 5.44 0 0 Z " fill="#B98554" transform="translate(268,212)"/>
<path d="M0 0 C7.92 0 15.84 0 24 0 C24 1.98 24 3.96 24 6 C16.08 6 8.16 6 0 6 C0 4.02 0 2.04 0 0 Z " fill="#C78755" transform="translate(264,291)"/>
<path d="M0 0 C1.65 0 3.3 0 5 0 C5 6.27 5 12.54 5 19 C3.35 19 1.7 19 0 19 C0 17.02 0 15.04 0 13 C-1.98 13 -3.96 13 -6 13 C-6 10.36 -6 7.72 -6 5 C-4.02 5 -2.04 5 0 5 C0 3.35 0 1.7 0 0 Z " fill="#9D5C32" transform="translate(334,170)"/>
<path d="M0 0 C1.98 0 3.96 0 6 0 C6 6.93 6 13.86 6 21 C3.69 21 1.38 21 -1 21 C-1.18451025 6.21867882 -1.18451025 6.21867882 0 0 Z " fill="#DFA368" transform="translate(334,206)"/>
<path d="M0 0 C3.96 0 7.92 0 12 0 C12 1.98 12 3.96 12 6 C10.35 6 8.7 6 7 6 C7 8.97 7 11.94 7 15 C4.69 15 2.38 15 0 15 C0 10.05 0 5.1 0 0 Z " fill="#A56338" transform="translate(140,485)"/>
<path d="M0 0 C2.97 0 5.94 0 9 0 C9 4.95 9 9.9 9 15 C6.03 15 3.06 15 0 15 C0 10.05 0 5.1 0 0 Z " fill="#DB9C63" transform="translate(222,313)"/>
<path d="M0 0 C2.31 0 4.62 0 7 0 C7 7.26 7 14.52 7 22 C5.02 22 3.04 22 1 22 C1.00523682 21.40461426 1.01047363 20.80922852 1.01586914 20.19580078 C1.03661999 17.50554453 1.04965407 14.81530511 1.0625 12.125 C1.07087891 11.18785156 1.07925781 10.25070312 1.08789062 9.28515625 C1.09111328 8.38925781 1.09433594 7.49335938 1.09765625 6.5703125 C1.10289307 5.74289551 1.10812988 4.91547852 1.11352539 4.06298828 C1.13352138 1.93588243 1.13352138 1.93588243 0 0 Z " fill="#090504" transform="translate(359,441)"/>
<path d="M0 0 C2.31 0 4.62 0 7 0 C6.67 8.58 6.34 17.16 6 26 C4.35 26 2.7 26 1 26 C0.67 17.42 0.34 8.84 0 0 Z " fill="#A8663B" transform="translate(140,209)"/>
<path d="M0 0 C0 2.31 0 4.62 0 7 C-1.98 7 -3.96 7 -6 7 C-6 8.98 -6 10.96 -6 13 C-6.33 13 -6.66 13 -7 13 C-7 11.02 -7 9.04 -7 7 C-10.96 7 -14.92 7 -19 7 C-19 5.02 -19 3.04 -19 1 C-12.61773055 0.17648136 -6.43255401 -0.12086218 0 0 Z " fill="#E3A668" transform="translate(175,206)"/>
<path d="M0 0 C2.64 0 5.28 0 8 0 C8 2.64 8 5.28 8 8 C5.69 8 3.38 8 1 8 C1 10.31 1 12.62 1 15 C-1.64 15 -4.28 15 -7 15 C-7 12.36 -7 9.72 -7 7 C-4.69 7 -2.38 7 0 7 C0 4.69 0 2.38 0 0 Z " fill="#B57548" transform="translate(312,289)"/>
<path d="M0 0 C2.64 0 5.28 0 8 0 C8 4.95 8 9.9 8 15 C5.36 15 2.72 15 0 15 C0 10.05 0 5.1 0 0 Z " fill="#F5E9D3" transform="translate(215,213)"/>
<path d="M0 0 C1.99954746 -0.04254356 4.00041636 -0.04080783 6 0 C7 1 7 1 7 8 C24.16 8 41.32 8 59 8 C59 8.33 59 8.66 59 9 C39.53 9 20.06 9 0 9 C0 6.03 0 3.06 0 0 Z " fill="#E1A86B" transform="translate(238,304)"/>
<path d="M0 0 C2.64 0 5.28 0 8 0 C8 7.26 8 14.52 8 22 C-7.51 22 -23.02 22 -39 22 C-39 21.67 -39 21.34 -39 21 C-26.13 21 -13.26 21 0 21 C0 18.69 0 16.38 0 14 C0.33 14 0.66 14 1 14 C1 15.98 1 17.96 1 20 C2.65 20 4.3 20 6 20 C6 13.73 6 7.46 6 1 C4.35 1 2.7 1 1 1 C1 2.65 1 4.3 1 6 C0.67 6 0.34 6 0 6 C0 4.02 0 2.04 0 0 Z " fill="#94663D" transform="translate(333,169)"/>
<path d="M0 0 C0 4.95 0 9.9 0 15 C-2.31 15 -4.62 15 -7 15 C-7 10.71 -7 6.42 -7 2 C-1 0 -1 0 0 0 Z " fill="#080504" transform="translate(346,381)"/>
<path d="M0 0 C2.31 0 4.62 0 7 0 C7 4.62 7 9.24 7 14 C4.69 14 2.38 14 0 14 C0 9.38 0 4.76 0 0 Z " fill="#AE6B3E" transform="translate(327,268)"/>
<path d="M0 0 C1.98 0 3.96 0 6 0 C6 4.29 6 8.58 6 13 C8.31 13 10.62 13 13 13 C13 13.33 13 13.66 13 14 C10.69 14 8.38 14 6 14 C6 16.31 6 18.62 6 21 C5.67 21 5.34 21 5 21 C5 18.69 5 16.38 5 14 C3.35 14 1.7 14 0 14 C0 9.38 0 4.76 0 0 Z " fill="#EEC186" transform="translate(327,214)"/>
<path d="M0 0 C5.28 0 10.56 0 16 0 C16 1.98 16 3.96 16 6 C10.72 6 5.44 6 0 6 C0 4.02 0 2.04 0 0 Z " fill="#D5955D" transform="translate(183,207)"/>
<path d="M0 0 C0.33 0 0.66 0 1 0 C1 7.59 1 15.18 1 23 C3.31 23 5.62 23 8 23 C8 25.64 8 28.28 8 31 C5.36 31 2.72 31 0 31 C0 20.77 0 10.54 0 0 Z " fill="#B07144" transform="translate(147,213)"/>
<path d="M0 0 C2.64 0 5.28 0 8 0 C8 9.9 8 19.8 8 30 C7.67 30 7.34 30 7 30 C7 22.74 7 15.48 7 8 C5.02 8 3.04 8 1 8 C0 7 0 7 -0.0625 3.4375 C-0.041875 2.303125 -0.02125 1.16875 0 0 Z " fill="#A86E40" transform="translate(333,198)"/>
<path d="M0 0 C1.98 0 3.96 0 6 0 C6 4.62 6 9.24 6 14 C3.69 14 1.38 14 -1 14 C-0.67 9.38 -0.34 4.76 0 0 Z " fill="#E0A166" transform="translate(255,199)"/>
<path d="M0 0 C1.65 0 3.3 0 5 0 C5 5.28 5 10.56 5 16 C3.35 16 1.7 16 0 16 C0 10.72 0 5.44 0 0 Z " fill="#C1915B" transform="translate(294,212)"/>
<path d="M0 0 C2.97 0 5.94 0 9 0 C9 2.31 9 4.62 9 7 C11.31 7 13.62 7 16 7 C16 7.33 16 7.66 16 8 C10.39 8 4.78 8 -1 8 C-0.67 5.36 -0.34 2.72 0 0 Z " fill="#E2AD6C" transform="translate(215,154)"/>
<path d="M0 0 C2.64 0 5.28 0 8 0 C8 2.64 8 5.28 8 8 C5.69 8 3.38 8 1 8 C1 12.95 1 17.9 1 23 C0.67 23 0.34 23 0 23 C0 15.41 0 7.82 0 0 Z " fill="#CF8F59" transform="translate(330,477)"/>
<path d="M0 0 C5.28 0 10.56 0 16 0 C16 2.64 16 5.28 16 8 C13.03 8 10.06 8 7 8 C7 5.69 7 3.38 7 1 C4.69 1 2.38 1 0 1 C0 0.67 0 0.34 0 0 Z " fill="#D49660" transform="translate(215,296)"/>
<path d="M0 0 C1.98 0 3.96 0 6 0 C6 4.29 6 8.58 6 13 C4.02 13 2.04 13 0 13 C0 8.71 0 4.42 0 0 Z " fill="#B27042" transform="translate(184,262)"/>
<path d="M0 0 C6.27 0 12.54 0 19 0 C19 2.97 19 5.94 19 9 C17.02 9 15.04 9 13 9 C12.67 6.36 12.34 3.72 12 1 C8.37 1 4.74 1 1 1 C0.67 1.99 0.34 2.98 0 4 C0 2.68 0 1.36 0 0 Z " fill="#DB9C63" transform="translate(275,252)"/>
<path d="M0 0 C2.64 0 5.28 0 8 0 C8 2.31 8 4.62 8 7 C2.79826905 7.86809439 -2.16978816 8.12515348 -7.4375 8.0625 C-8.16904297 8.05798828 -8.90058594 8.05347656 -9.65429688 8.04882812 C-11.43623419 8.03718148 -13.21812863 8.01925191 -15 8 C-15 7.67 -15 7.34 -15 7 C-10.05 7 -5.1 7 0 7 C0 4.69 0 2.38 0 0 Z " fill="#0D0A09" transform="translate(186,345)"/>
<path d="M0 0 C2.64 0 5.28 0 8 0 C8 2.64 8 5.28 8 8 C5.36 8 2.72 8 0 8 C0 5.36 0 2.72 0 0 Z " fill="#0D0704" transform="translate(254,228)"/>
<path d="M0 0 C4.95 0.33 9.9 0.66 15 1 C15 1.33 15 1.66 15 2 C12.36 2 9.72 2 7 2 C7 3.98 7 5.96 7 8 C4.69 8 2.38 8 0 8 C0 5.36 0 2.72 0 0 Z " fill="#C88854" transform="translate(200,183)"/>
<path d="M0 0 C2.31 0 4.62 0 7 0 C7 2.97 7 5.94 7 9 C4.69 9 2.38 9 0 9 C0 6.03 0 3.06 0 0 Z " fill="#AA6739" transform="translate(179,491)"/>
<path d="M0 0 C2.64 0 5.28 0 8 0 C8 2.31 8 4.62 8 7 C5.36 7 2.72 7 0 7 C0 4.69 0 2.38 0 0 Z " fill="#AB6B41" transform="translate(305,297)"/>
<path d="M0 0 C2.31 0 4.62 0 7 0 C7 2.64 7 5.28 7 8 C4.69 8 2.38 8 0 8 C0 5.36 0 2.72 0 0 Z " fill="#130D09" transform="translate(334,228)"/>
<path d="M0 0 C2.64 0 5.28 0 8 0 C8 2.31 8 4.62 8 7 C5.36 7 2.72 7 0 7 C0 4.69 0 2.38 0 0 Z " fill="#B16F41" transform="translate(155,219)"/>
<path d="M0 0 C2.31 0 4.62 0 7 0 C7 2.64 7 5.28 7 8 C4.69 8 2.38 8 0 8 C0 5.36 0 2.72 0 0 Z " fill="#CD8E58" transform="translate(255,175)"/>
<path d="M0 0 C2.64 0 5.28 0 8 0 C8 2.31 8 4.62 8 7 C5.36 7 2.72 7 0 7 C0 4.69 0 2.38 0 0 Z " fill="#AC6E3F" transform="translate(275,154)"/>
<path d="M0 0 C2.97 0 5.94 0 9 0 C9.04254356 1.99954746 9.04080783 4.00041636 9 6 C8.67 6.33 8.34 6.66 8 7 C5.66055264 6.71269945 3.3260857 6.38063221 1 6 C0.67 4.02 0.34 2.04 0 0 Z " fill="#AC6A3D" transform="translate(199,289)"/>
<path d="M0 0 C2.64 0 5.28 0 8 0 C8 1.98 8 3.96 8 6 C5.36 6.33 2.72 6.66 0 7 C0 4.69 0 2.38 0 0 Z " fill="#D4955F" transform="translate(199,282)"/>
<path d="M0 0 C1.98 0 3.96 0 6 0 C6 2.64 6 5.28 6 8 C3.69 8 1.38 8 -1 8 C-0.67 5.36 -0.34 2.72 0 0 Z " fill="#AC6C41" transform="translate(299,304)"/>
<path d="M0 0 C0 2.64 0 5.28 0 8 C-2.31 8 -4.62 8 -7 8 C-7 5.69 -7 3.38 -7 1 C-1.125 0 -1.125 0 0 0 Z " fill="#A25F35" transform="translate(294,244)"/>
<path d="M0 0 C1.65 0 3.3 0 5 0 C5.33 3.3 5.66 6.6 6 10 C4.02 10 2.04 10 0 10 C0 6.7 0 3.4 0 0 Z " fill="#D6965E" transform="translate(334,217)"/>
<path d="M0 0 C4.95 0 9.9 0 15 0 C15 2.31 15 4.62 15 7 C13.35 7 11.7 7 10 7 C10 5.68 10 4.36 10 3 C9.36191406 2.95101562 8.72382813 2.90203125 8.06640625 2.8515625 C7.24011719 2.77679688 6.41382813 2.70203125 5.5625 2.625 C4.73878906 2.55539063 3.91507813 2.48578125 3.06640625 2.4140625 C2.38449219 2.27742187 1.70257813 2.14078125 1 2 C0.67 1.34 0.34 0.68 0 0 Z " fill="#EFE1CA" transform="translate(239,213)"/>
<path d="M0 0 C2.31 0 4.62 0 7 0 C7 2.31 7 4.62 7 7 C4.69 7 2.38 7 0 7 C0 4.69 0 2.38 0 0 Z " fill="#B16E41" transform="translate(320,282)"/>
<path d="M0 0 C6.27 0 12.54 0 19 0 C19 0.33 19 0.66 19 1 C13.30629211 2.23107198 7.79784572 2.07070544 2 2 C1.67 6.29 1.34 10.58 1 15 C0.67 15 0.34 15 0 15 C0 10.05 0 5.1 0 0 Z " fill="#EAE0CF" transform="translate(314,213)"/>
<path d="M0 0 C2.31 0 4.62 0 7 0 C7 2.31 7 4.62 7 7 C4.69 7 2.38 7 0 7 C0 4.69 0 2.38 0 0 Z " fill="#854A27" transform="translate(147,205)"/>
<path d="M0 0 C2.64 0 5.28 0 8 0 C8 1.98 8 3.96 8 6 C5.36 6 2.72 6 0 6 C0 4.02 0 2.04 0 0 Z " fill="#C28B56" transform="translate(254,236)"/>
<path d="M0 0 C1.98 0 3.96 0 6 0 C6 2.64 6 5.28 6 8 C4.02 8 2.04 8 0 8 C0 5.36 0 2.72 0 0 Z " fill="#0E0704" transform="translate(208,228)"/>
<path d="M0 0 C0 2.31 0 4.62 0 7 C-2.64 7 -5.28 7 -8 7 C-7.67 5.02 -7.34 3.04 -7 1 C-4 0 -4 0 0 0 Z " fill="#BE7D4D" transform="translate(198,275)"/>
<path d="M0 0 C1.98 0 3.96 0 6 0 C6 1.98 6 3.96 6 6 C4.35 6 2.7 6 1 6 C1 8.64 1 11.28 1 14 C0.67 14 0.34 14 0 14 C0 9.38 0 4.76 0 0 Z " fill="#EECCA3" transform="translate(327,214)"/>
<path d="M0 0 C1.98 0 3.96 0 6 0 C6.33 2.31 6.66 4.62 7 7 C4.69 7 2.38 7 0 7 C0 4.69 0 2.38 0 0 Z " fill="#D6975F" transform="translate(320,162)"/>
<path d="M0 0 C0 4.95 0 9.9 0 15 C-0.33 15 -0.66 15 -1 15 C-1 12.03 -1 9.06 -1 6 C-2.65 6 -4.3 6 -6 6 C-6 4.35 -6 2.7 -6 1 C-3 0 -3 0 0 0 Z " fill="#E4A869" transform="translate(338,485)"/>
<path d="M0 0 C2.31 0 4.62 0 7 0 C7 1.98 7 3.96 7 6 C4.69 6 2.38 6 0 6 C0 4.02 0 2.04 0 0 Z " fill="#A66439" transform="translate(191,283)"/>
<path d="M0 0 C1.65 0 3.3 0 5 0 C5 1.98 5 3.96 5 6 C7.31 6 9.62 6 12 6 C12 6.33 12 6.66 12 7 C8.04 7 4.08 7 0 7 C0 4.69 0 2.38 0 0 Z " fill="#EABF88" transform="translate(249,221)"/>
<path d="M0 0 C2.31 0 4.62 0 7 0 C7 1.98 7 3.96 7 6 C4.69 6 2.38 6 0 6 C0 4.02 0 2.04 0 0 Z " fill="#E2A568" transform="translate(200,191)"/>
<path d="M0 0 C1.65 0 3.3 0 5 0 C5 2.64 5 5.28 5 8 C3.35 8 1.7 8 0 8 C0 5.36 0 2.72 0 0 Z " fill="#251C12" transform="translate(294,228)"/>
<path d="M0 0 C1.65 0 3.3 0 5 0 C5 2.64 5 5.28 5 8 C3.35 8 1.7 8 0 8 C0 5.36 0 2.72 0 0 Z " fill="#AC6A3C" transform="translate(328,175)"/>
<path d="M0 0 C2.64 0 5.28 0 8 0 C8 1.65 8 3.3 8 5 C5.36 5 2.72 5 0 5 C0 3.35 0 1.7 0 0 Z " fill="#CB8C57" transform="translate(216,156)"/>
<path d="M0 0 C2.31 0 4.62 0 7 0 C7 0.33 7 0.66 7 1 C5.02 1 3.04 1 1 1 C1 1.66 1 2.32 1 3 C2.65 3 4.3 3 6 3 C6 4.65 6 6.3 6 8 C4.02 8 2.04 8 0 8 C0 5.36 0 2.72 0 0 Z " fill="#C89660" transform="translate(262,228)"/>
<path d="M0 0 C1.98 0 3.96 0 6 0 C6 1.98 6 3.96 6 6 C4.02 6 2.04 6 0 6 C0 4.02 0 2.04 0 0 Z " fill="#C38251" transform="translate(184,262)"/>
<path d="M0 0 C1.98 0 3.96 0 6 0 C6 1.98 6 3.96 6 6 C4.02 6 2.04 6 0 6 C0 4.02 0 2.04 0 0 Z " fill="#C78C57" transform="translate(208,236)"/>
<path d="M0 0 C1.98 0 3.96 0 6 0 C6 1.98 6 3.96 6 6 C4.33388095 6.042721 2.66617115 6.04063832 1 6 C0 5 0 5 -0.0625 2.4375 C-0.041875 1.633125 -0.02125 0.82875 0 0 Z " fill="#D7975E" transform="translate(168,207)"/>
<path d="M0 0 C0 2.31 0 4.62 0 7 C-1.98 7.33 -3.96 7.66 -6 8 C-5.67 5.69 -5.34 3.38 -5 1 C-1.125 0 -1.125 0 0 0 Z " fill="#BE8451" transform="translate(299,236)"/>
<path d="M0 0 C1.98 0 3.96 0 6 0 C6 1.65 6 3.3 6 5 C4.02 5 2.04 5 0 5 C0 3.35 0 1.7 0 0 Z " fill="#D6975F" transform="translate(200,231)"/>
<path d="M0 0 C1.98 0 3.96 0 6 0 C6 1.65 6 3.3 6 5 C4.02 5 2.04 5 0 5 C0 3.35 0 1.7 0 0 Z " fill="#DD9E64" transform="translate(313,156)"/>
<path d="M0 0 C2.31 0 4.62 0 7 0 C7 1.32 7 2.64 7 4 C4.69 4.33 2.38 4.66 0 5 C0 3.35 0 1.7 0 0 Z " fill="#D4965E" transform="translate(207,185)"/>
<path d="M0 0 C1.32 0 2.64 0 4 0 C4 2.31 4 4.62 4 7 C2.68 7 1.36 7 0 7 C0 4.69 0 2.38 0 0 Z " fill="#D08F58" transform="translate(335,206)"/>
<path d="M0 0 C1.32 0 2.64 0 4 0 C4 1.98 4 3.96 4 6 C2.68 6.33 1.36 6.66 0 7 C0 4.69 0 2.38 0 0 Z " fill="#D99B61" transform="translate(209,206)"/>
</svg>
